<svg width="1024" height="1024" viewBox="0 0 1024 1024" version="1.1" xmlns="http://www.w3.org/2000/svg" xmlns:xlink="http://www.w3.org/1999/xlink"><title>appicon.svg</title><desc>Created with Sketch.</desc><g id="Template---App-Icons" stroke="none" stroke-width="1" fill="none" fill-rule="evenodd"><g id="Labels-+-Background" transform="translate(-600.000000, -610.000000)"><rect id="BG" fill="#666" x="0" y="0" width="3250" height="2190"/><g id="_Template-Resources-/-Header-and-Footer"><rect id="BG" fill="#666" fill-rule="evenodd" x="0" y="0" width="3250" height="2190"/><text id="Subtitle" opacity=".5" font-family="SFUIText-Medium, SF UI Text" font-size="16" font-weight="400" line-spacing="26" letter-spacing=".2" fill="#FFF"><tspan x="40" y="87">Values in pixels. Hide “Guide” group before exporting.</tspan></text><text id="OS" font-family="SFUIDisplay-Regular, SF UI Display" font-size="40" font-weight="normal" line-spacing="48" letter-spacing=".76" fill="#FFF"><tspan x="3096.073" y="60">iOS 10</tspan></text><text id="Title" font-family="SFUIDisplay-Regular, SF UI Display" font-size="40" font-weight="normal" line-spacing="48" letter-spacing=".76" fill="#FFF"><tspan x="40" y="60">App Icons</tspan></text></g></g><g id="App-Icons" transform="translate(-560.000000, -330.000000)"><g id="@2x" transform="translate(560.000000, 0.000000)"><g id="App-Icon" transform="translate(0.000000, 330.000000)"><rect id="grey-dark" fill="#273D56" fill-rule="nonzero" x="0" y=".425" width="1024" height="1023.215"/><path d="M530.666667,242.333333 C546.101764,242.333333 558.666667,254.890436 558.666667,270.333333 C558.666667,285.77623 546.109564,298.333333 530.666667,298.333333 C515.22377,298.333333 502.666667,285.77623 502.666667,270.333333 C502.666667,254.890436 515.231569,242.333333 530.666667,242.333333 L530.666667,242.333333 Z M571.666667,345.333333 C571.666667,354.147287 564.48062,361.333333 555.666667,361.333333 C546.852713,361.333333 539.666667,354.147287 539.666667,345.333333 C539.666667,336.51938 546.852713,329.333333 555.666667,329.333333 C564.48062,329.333333 571.666667,336.542636 571.666667,345.333333 L571.666667,345.333333 Z M422.336999,157.333333 C411.488701,157.333333 402.666667,166.259054 402.666667,177.217286 C402.666667,188.191275 411.496495,197.109117 422.336999,197.109117 L426.849329,197.109117 L426.849329,408.687297 L426.849329,419.078317 L426.849329,811.518537 C426.849329,841.746243 451.180065,866.333333 481.098609,866.333333 L543.265898,866.333333 C573.168855,866.333333 597.484004,841.746243 597.484004,811.518537 L597.484004,421.008415 L597.484004,411.877868 L597.484004,197.116995 L601.996335,197.116995 C612.844632,197.116995 621.666667,188.191275 621.666667,177.225164 C621.666667,166.259054 612.836839,157.333333 601.988541,157.333333 L422.336999,157.333333 Z M581.652348,404.781819 C577.378249,400.035777 571.600699,395.532921 561.176766,395.532921 C553.179835,395.532921 547.423762,401.039898 541.86099,406.374292 C535.97605,412.014629 530.413279,417.333333 522.022586,417.333333 C514.390778,417.333333 510.324299,412.854012 505.627802,407.660822 C500.480269,401.973417 494.645444,395.532921 483.799114,395.532921 C472.98142,395.532921 467.225347,401.942038 462.149408,407.605909 C457.46007,412.822633 453.407909,417.333333 445.58996,417.333333 C444.086508,417.333333 442.85511,417.074458 441.666667,416.768515 L441.666667,200.333333 L581.666667,200.333333 L581.666667,404.781819 L581.652348,404.781819 Z M495.166667,344.333333 C501.506723,344.333333 506.666667,349.493277 506.666667,355.833333 C506.666667,362.17339 501.506723,367.333333 495.166667,367.333333 C488.82661,367.333333 483.666667,362.17339 483.666667,355.833333 C483.666667,349.493277 488.82661,344.333333 495.166667,344.333333 L495.166667,344.333333 Z M466.666667,283.333333 C473.83669,283.333333 479.666667,277.50163 479.666667,270.329481 C479.666667,263.157333 473.83669,257.333333 466.666667,257.333333 C459.496643,257.333333 453.666667,263.165037 453.666667,270.337185 C453.666667,277.509333 459.504344,283.333333 466.666667,283.333333 L466.666667,283.333333 Z" id="Test-Tube" fill="#FFF" fill-rule="evenodd"/></g></g></g></g></svg>